<?xml version="1.0" standalone="no"?>
<!DOCTYPE svg PUBLIC "-//W3C//DTD SVG 1.1//EN" "http://www.w3.org/Graphics/SVG/1.1/DTD/svg11.dtd" >
<svg xmlns="http://www.w3.org/2000/svg">
<metadata>Generated by IcoMoon</metadata>
<defs>
<font id="icomoon" horiz-adv-x="1024">
<font-face units-per-em="1024" ascent="960" descent="-64" />
<missing-glyph horiz-adv-x="1024" />
<glyph unicode="&#x20;" horiz-adv-x="512" d="" />
<glyph unicode="&#xecac;" glyph-name="arrow" horiz-adv-x="878" d="M28.619 828.207c-4.627-3.155-4.627-9.978 0-13.133l163.879-111.735c5.276-3.599 12.425 0.18 12.425 6.566v223.471c0 6.385-7.149 10.163-12.425 6.566l-163.879-111.736z" />
<glyph unicode="&#xecad;" glyph-name="arrow_right_alt" horiz-adv-x="1638" d="M1287.537 359.823l-1165.229-24.984c-24.984 0-45.926 8.45-62.827 25.351s-25.351 37.843-25.351 62.826c0 24.984 8.45 45.926 25.351 62.827s37.843 25.351 62.827 25.351l1165.229 24.984-251.303 251.307c-17.64 17.636-26.092 38.21-25.354 61.725s9.189 44.089 25.354 61.724c17.633 17.636 38.577 26.821 62.826 27.556s45.193-7.716 62.826-25.351l403.415-403.413c8.813-8.818 15.060-18.371 18.732-28.658 3.68-10.287 5.516-21.309 5.516-33.066s-1.836-22.78-5.516-33.067c-3.673-10.287-9.919-19.84-18.732-28.658l-403.415-403.411c-17.633-17.64-38.577-26.092-62.826-25.354s-45.193 9.919-62.826 27.559c-16.166 17.633-24.617 38.209-25.354 61.72-0.737 23.518 7.714 44.093 25.354 61.727l251.303 251.306z" />
<glyph unicode="&#xecaf;" glyph-name="Chat1" d="M843.878 133.236c-141.508-136.076-351.049-165.478-522.523-89.226-25.314 9.799-46.068 17.72-65.798 17.72-54.956-0.312-123.359-51.552-158.911-17.408-35.551 34.188 17.776 100.014 17.776 153.173 0 18.975-7.911 38.574-18.102 62.963-79.339 164.855-48.72 366.401 92.787 502.436 180.642 173.758 474.128 173.758 654.771 0.045 180.968-174.027 180.643-455.987 0-629.702z" />
<glyph unicode="&#xecb0;" glyph-name="checkmark-12" horiz-adv-x="1010" d="M414.041 297.146c3.887-3.446 9.739-3.517 13.712-0.081 86.632 75.167 165.604 154.003 259.831 233.555 8.129 6.866 12.975 16.463 13.651 27.046 2.079 32.89-37.085 54.428-63.701 32.412-80.616-66.58-147.642-126.969-210.16-189.385-12.285 12.272-28.721 29.828-49.002 52.361-15.679 17.412-43.976 20.425-63.011 1.622-16.719-16.503-17.517-42.994-1.831-60.322 37.858-41.785 61.627-62.637 100.512-97.208zM210.575 110.309c132.775-103.18 333.659-111.295 472.77-16.835 119.528 81.165 189.641 237.228 176.959 381.891-7.564 215.035-147.285 348.917-377.096 359.379-67.591 3.203-133.276-13.517-191.189-47.526-96.742-45.535-176.735-127.821-212.832-228.729-56.637-158.328-1.387-345.001 131.387-448.18zM164.437 617.644c64.941 121.486 180.782 202.689 317.826 196.366 227.291-10.353 357.646-140.539 357.646-357.186 0-196.943-160.225-357.174-357.173-357.174-271.365 0-439.228 291.749-318.3 517.994zM770.377 862.141c-12.793-30.506-21.396-62.592-25.58-95.395-0.724-5.691 3.297-10.88 8.988-11.611 5.82-0.706 10.897 3.396 11.611 8.988 3.939 30.938 12.056 61.214 24.119 89.99 2.224 5.285-0.27 11.367-5.556 13.584-5.297 2.244-11.366-0.27-13.582-5.555zM900.772 794.007c-3.508 4.541-10.022 5.379-14.563 1.851l-69.655-53.929c-4.534-3.501-5.366-10.028-1.851-14.556 3.525-4.577 10.095-5.338 14.557-1.853l69.654 53.929c4.534 3.501 5.366 10.028 1.858 14.557zM952.739 673.281c-1.771 5.448-7.609 8.447-13.083 6.651-23.364-7.623-47.59-11.313-72.324-10.732-5.393-0.203-10.468-4.433-10.59-10.179-0.115-5.73 4.44-10.461 10.17-10.583 28.332-0.472 54.449 3.697 79.177 11.76 5.453 1.769 8.427 7.636 6.649 13.083z" />
<glyph unicode="&#xecb1;" glyph-name="close" d="M512.004 345.601l-358.4-358.401c-13.409-13.407-30.476-20.114-51.2-20.114s-37.791 6.707-51.2 20.114c-13.41 13.407-20.114 30.479-20.114 51.2s6.705 37.793 20.114 51.2l358.4 358.401-358.4 358.4c-13.41 13.41-20.114 30.476-20.114 51.2s6.705 37.791 20.114 51.2c13.409 13.41 30.477 20.114 51.2 20.114s37.791-6.705 51.2-20.114l358.4-358.4 358.396 358.4c13.414 13.41 30.479 20.114 51.2 20.114 20.729 0 37.793-6.705 51.2-20.114 13.414-13.409 20.114-30.476 20.114-51.2s-6.7-37.79-20.114-51.2l-358.396-358.4 358.396-358.401c13.414-13.407 20.114-30.479 20.114-51.2s-6.7-37.793-20.114-51.2c-13.407-13.407-30.471-20.114-51.2-20.114-20.721 0-37.786 6.707-51.2 20.114l-358.396 358.401z" />
<glyph unicode="&#xecb2;" glyph-name="crop_free" d="M113.778-64c-31.289 0-58.074 11.14-80.356 33.421s-33.422 49.067-33.422 80.357v170.667c0 16.118 5.452 29.628 16.356 40.533 10.904 10.903 24.415 16.355 40.533 16.355s29.63-5.452 40.533-16.355c10.904-10.906 16.356-24.415 16.356-40.533v-170.667h170.667c16.118 0 29.628-5.452 40.533-16.357 10.903-10.903 16.355-24.415 16.355-40.533s-5.452-29.628-16.355-40.533c-10.906-10.903-24.415-16.355-40.533-16.355h-170.667zM910.221-64h-170.667c-16.118 0-29.628 5.452-40.533 16.355-10.903 10.906-16.355 24.415-16.355 40.533s5.452 29.63 16.355 40.533c10.906 10.906 24.415 16.357 40.533 16.357h170.667v170.667c0 16.118 5.452 29.628 16.357 40.533 10.903 10.903 24.415 16.355 40.533 16.355s29.628-5.452 40.533-16.355c10.903-10.906 16.355-24.415 16.355-40.533v-170.667c0-31.291-11.14-58.075-33.421-80.357s-49.067-33.421-80.357-33.421zM0 675.555v170.667c0 31.289 11.141 58.074 33.422 80.356s49.067 33.422 80.356 33.422h170.667c16.118 0 29.628-5.452 40.533-16.356 10.903-10.904 16.355-24.415 16.355-40.533s-5.452-29.63-16.355-40.533c-10.906-10.904-24.415-16.356-40.533-16.356h-170.667v-170.667c0-16.118-5.452-29.628-16.356-40.533-10.904-10.903-24.415-16.355-40.533-16.355s-29.629 5.452-40.533 16.355c-10.904 10.906-16.356 24.415-16.356 40.533zM910.221 675.555v170.667h-170.667c-16.118 0-29.628 5.452-40.533 16.356-10.903 10.904-16.355 24.415-16.355 40.533s5.452 29.629 16.355 40.533c10.906 10.904 24.415 16.356 40.533 16.356h170.667c31.291 0 58.075-11.141 80.357-33.422s33.421-49.067 33.421-80.356v-170.667c0-16.118-5.452-29.628-16.355-40.533-10.906-10.903-24.415-16.355-40.533-16.355s-29.63 5.452-40.533 16.355c-10.906 10.906-16.357 24.415-16.357 40.533z" />
<glyph unicode="&#xecb3;" glyph-name="Frame-1" d="M269.52 416.522h-43.625c-5.596 0-11.069-1.638-15.743-4.716s-8.346-7.455-10.561-12.59l-120.767-281.211 286.811 146.488c-34.333 47.508-68.305 99.907-96.114 152.028zM824.402 399.217c-2.212 5.135-5.883 9.513-10.557 12.59s-10.143 4.716-15.739 4.716h-43.622c-52.521-98.412-129.034-200.115-177.705-256.072-34.232-39.26-95.372-39.214-129.549 0-3.496 4.019-21.745 25.149-46.884 57.641l-51.706-26.424 195.597-195.215 370.616 192.138-90.45 210.627zM43.538 35.825l-15.599-36.326c-8.077-18.806 5.755-39.798 26.294-39.798h419.995c2.628 1.951 2.658 1.833 16.758 9.144l-195.882 195.476-251.566-128.497zM996.065-0.507l-58.604 136.458-339.983-176.251h372.291c20.49 0 34.381 20.956 26.296 39.793zM540.611 675.383c0 15.749-12.841 28.551-28.611 28.551-15.779 0-28.612-12.803-28.612-28.551 0-15.742 12.833-28.553 28.612-28.553 15.77 0 28.611 12.811 28.611 28.553zM533.586 199.828c9.631 11.054 235.904 272.797 235.904 452.717 0 371.005-514.99 375.533-514.99 0 0-179.92 226.271-441.663 235.904-452.717 11.408-13.087 31.795-13.071 43.182 0zM426.159 675.383c0 47.234 38.505 85.656 85.835 85.656 47.32 0 85.828-38.424 85.828-85.656 0-47.226-38.508-85.648-85.828-85.648-47.329 0-85.835 38.422-85.835 85.648z" />
<glyph unicode="&#xecb4;" glyph-name="Frame-2" d="M696.476 218.137c12.808-21.045 16.65-45.773 10.813-69.706-2.834-11.776-7.975-22.872-15.127-32.649-7.148-9.777-16.167-18.039-26.53-24.306l-76.308-46.449c-14.352-8.757-30.839-13.39-47.649-13.394-14.868 0-29.86 3.596-43.774 10.846-160.237 83.096-251.721 206.5-291.995 272.638-89.242 146.596-107.981 291.042-108.012 386.366 0 32.133 16.527 61.44 44.237 78.336l76.34 46.449c10.322 6.33 21.8 10.546 33.766 12.402s24.182 1.316 35.937-1.589c23.9-5.806 44.145-20.582 56.925-41.626l47.923-78.705c12.68-20.889 16.558-45.955 10.781-69.7s-20.735-44.228-41.594-56.959l-39.537-24.054c-11.858-7.219-17.633-21.717-13.67-34.435 26.259-84.849 73.119-161.87 136.396-224.195 4.862-4.674 11.145-7.586 17.854-8.278 6.705-0.688 13.451 0.881 19.165 4.469l39.506 24.052c20.881 12.694 45.949 16.581 69.693 10.809 23.749-5.771 44.233-20.73 56.963-41.591l47.895-78.733zM514.736 587.389c32.186-5.010 61.071-22.58 80.327-48.86 19.251-26.276 27.296-59.113 22.368-91.316-0.614-3.985-0.438-8.057 0.52-11.977s2.679-7.614 5.063-10.867c2.384-3.256 5.386-6.009 8.835-8.102 3.449-2.097 7.279-3.49 11.264-4.104 3.99-0.618 8.057-0.442 11.977 0.516s7.614 2.679 10.867 5.063c3.256 2.388 6.009 5.39 8.106 8.839 2.093 3.449 3.486 7.274 4.104 11.264 7.397 48.3-4.665 97.563-33.542 136.984-28.873 39.42-72.204 65.778-120.488 73.293-7.967 1.062-16.028-1.040-22.462-5.853s-10.727-11.956-11.956-19.896c-1.229-7.941 0.7-16.046 5.378-22.58s11.727-10.976 19.64-12.373v-0.031zM542.843 769.559c-7.889 0.895-15.823-1.298-22.135-6.119-6.308-4.821-10.51-11.898-11.723-19.747-1.208-7.849 0.664-15.863 5.226-22.362 4.567-6.5 11.469-10.981 19.263-12.505 64.881-10.015 121.958-44.698 160.756-97.659 38.801-52.961 54.653-117.84 44.638-182.721-0.897-7.893 1.294-15.823 6.119-22.135 4.821-6.312 11.895-10.514 19.747-11.723 7.848-1.212 15.86 0.659 22.36 5.226 6.5 4.563 10.981 11.465 12.505 19.259 12.534 81.101-7.279 162.202-55.788 228.404-48.505 66.202-119.869 109.548-200.97 122.081zM561.582 890.995c-8.049 1.219-16.257-0.798-22.823-5.61-6.57-4.812-10.965-12.028-12.227-20.072-2.58-16.742 8.909-32.44 25.682-35.052 200.876-30.996 339.087-219.648 308.089-420.555-0.893-7.893 1.298-15.823 6.119-22.135s11.899-10.514 19.747-11.723c7.848-1.212 15.864 0.659 22.364 5.226 6.496 4.563 10.977 11.465 12.505 19.259 36.188 234.363-125.063 454.441-359.457 490.63v0.031z" />
<glyph unicode="&#xecb5;" glyph-name="Frame-3" horiz-adv-x="973" d="M600.755 771.009l-535.247-535.289c-2.695-2.698-4.616-6.077-5.562-9.774l-59.329-238.126c-0.873-3.533-0.819-7.235 0.155-10.742s2.837-6.702 5.407-9.277c3.948-3.937 9.294-6.149 14.868-6.154 1.72 0 3.432 0.215 5.1 0.635l238.127 59.336c3.703 0.932 7.082 2.852 9.778 5.555l535.292 535.248-208.589 208.589zM941.947 843.994l-59.581 59.58c-39.818 39.821-109.225 39.782-148.997 0l-72.986-72.986 208.584-208.582 72.98 72.984c19.891 19.883 30.848 46.349 30.848 74.497s-10.957 54.614-30.848 74.507z" />
<glyph unicode="&#xecb6;" glyph-name="Frame-4" d="M441.585 745.101v-186.853c0-8.258-3.28-16.179-9.121-22.020s-13.762-9.121-22.020-9.121h-186.852c-8.259 0-16.181 3.28-22.021 9.121s-9.121 13.762-9.121 22.020v186.853c0 8.26 3.281 16.181 9.121 22.021s13.761 9.121 22.021 9.121h186.852c8.258 0 16.179-3.281 22.020-9.121s9.121-13.761 9.121-22.021zM410.445 402.538h-186.852c-8.259 0-16.181-3.28-22.021-9.121s-9.121-13.762-9.121-22.020v-186.851c0-8.261 3.281-16.183 9.121-22.023s13.761-9.121 22.021-9.121h186.852c8.258 0 16.179 3.28 22.020 9.121s9.121 13.762 9.121 22.023v186.851c0 8.258-3.28 16.179-9.121 22.020s-13.762 9.121-22.020 9.121zM797.773 745.101v-186.853c0-8.258-3.28-16.179-9.121-22.020s-13.762-9.121-22.020-9.121h-186.851c-8.261 0-16.183 3.28-22.023 9.121s-9.121 13.762-9.121 22.020v186.853c0 8.26 3.28 16.181 9.121 22.021s13.762 9.121 22.023 9.121h186.851c8.258 0 16.179-3.281 22.020-9.121s9.121-13.761 9.121-22.021zM766.632 402.538h-186.851c-8.261 0-16.183-3.28-22.023-9.121s-9.121-13.762-9.121-22.020v-186.851c0-8.261 3.28-16.183 9.121-22.023s13.762-9.121 22.023-9.121h186.851c8.258 0 16.179 3.28 22.020 9.121s9.121 13.762 9.121 22.023v186.851c0 8.258-3.28 16.179-9.121 22.020s-13.762 9.121-22.020 9.121z" />
<glyph unicode="&#xecb7;" glyph-name="Frame-5" d="M994.718 820.010c-15.063 15.090-39.505 15.116-54.57 0.064l-462.986-461.764-167.043 181.427c-14.434 15.667-38.839 16.684-54.532 2.251-15.682-14.434-16.687-38.849-2.253-54.532l194.253-210.962c3.518-3.825 7.775-6.899 12.513-9.037 4.738-2.137 9.858-3.295 15.054-3.402 0.283-0.012 0.555-0.012 0.824-0.012 10.214 0.003 20.009 4.050 27.246 11.256l491.419 490.129c15.102 15.050 15.128 39.493 0.075 54.582zM985.406 486.594c-21.316 0-38.593-17.277-38.593-38.594 0-239.766-195.048-434.813-434.813-434.813-239.752 0-434.814 195.048-434.814 434.813 0 239.752 195.062 434.814 434.814 434.814 21.316 0 38.594 17.276 38.594 38.592 0 21.318-17.278 38.594-38.594 38.594-282.32 0-512-229.68-512-512 0-282.308 229.68-512 512-512 282.308 0 512 229.692 512 512 0 21.316-17.277 38.594-38.594 38.594z" />
<glyph unicode="&#xecb8;" glyph-name="Frame" d="M335.050 119.869l-83.246 133.77-75.308-21.023c-72.946-20.49-123.796-87.752-123.796-163.379v-111.78c0-11.802 9.654-21.458 21.456-21.458h336.632l16.198 147.502c-33.812-9.364-71.842 3.963-91.936 36.367zM847.508 232.724l-75.203 21.028-83.246-133.99c-20.511-32.932-59.894-45.696-92.042-36.152l16.2-147.61h336.63c11.796 0 21.453 9.651 21.453 21.453v111.78c0.005 75.633-50.842 142.894-123.791 163.492zM595.917 130.545c18.836-12.902 44.641-7.48 56.673 11.909l64.835 104.392-88.054 54.451-117.243-113.306h-0.173l-0.038-0.005-117.232 113.311-88.078-54.451 64.854-104.392c12.034-19.384 37.818-24.806 56.656-11.904l11.076 7.593 33.284-33.285-16.842-153.19h112.746l-16.84 153.083 33.352 33.352 11.023-7.557zM251.919 773.824c11.694 12.336 28.322 19.846 46.45 19.846h427.063c18.13 0 34.76-7.508 46.561-19.952 0.353 1.204 15.611 24.68 5.253 53.636-15.626 43.984-50.529 37.544-239.652 127.336-8.038 3.502-16.712 5.31-25.477 5.31-8.77 0-17.443-1.808-25.48-5.31-192.030-91.128-224.172-83.636-239.76-127.228-10.572-29.564 4.664-52.328 5.042-53.638zM725.432 750.758h-427.063c-9.868 0-18.452-6.65-20.812-16.306-6.574-26.462-7.296-44.298-7.296-67.692 0-15.020 5.96-29.628 19.17-40.734 5.064-175.002 62.794-230.009 141-296.436 17.015-14.536 38.655-22.518 61.032-22.523h41.405c22.369 0 44.006 7.982 61.015 22.508 76.406 65.116 135.101 117.929 140.769 296.532 11.638 9.882 19.205 24.57 19.205 41.406 0 18.88 0 36.582-7.619 67.048-2.35 9.548-10.936 16.198-20.808 16.198zM566.031 362.214c-9.242-7.9-21.002-12.237-33.157-12.237h-41.409c-12.178 0-23.954 4.357-33.204 12.278-61.546 52.234-117.702 94.203-125.442 251.083h1.806l50.312-48.81c21.884-21.24 50.742-32.934 81.316-32.934h91.719c30.469 0 59.325 11.694 81.208 32.826l50.524 48.918h1.521c-7.808-150.152-57.196-193.217-125.194-251.124z" />
<glyph unicode="&#xecb9;" glyph-name="Group-2020" horiz-adv-x="983" d="M198.042 29.536c5.905-6.005 12.952-10.764 20.725-14s16.116-4.882 24.536-4.841c10.407 0.004 20.655 2.544 29.861 7.393 9.206 4.854 17.092 11.874 22.977 20.46 65.183 95.445 137.334 185.938 215.858 270.746l-172.441 172.442c-84.848-78.479-175.339-150.626-270.746-215.859-8.57-5.898-15.582-13.787-20.433-22.991s-7.397-19.444-7.419-29.848c-0.039-8.421 1.608-16.765 4.844-24.539 3.236-7.77 7.995-14.819 13.998-20.722l138.24-138.24zM614.4 412.307l-171.827 171.826c-23.962-25.19-48.332-49.56-73.522-73.522l171.417-172.237c23.962 25.6 48.333 49.971 73.933 73.933zM784.998 892.972c-5.89 6.021-12.935 10.793-20.709 14.030-7.778 3.237-16.126 4.873-24.551 4.811-10.404-0.023-20.644-2.569-29.848-7.42s-17.093-11.863-22.991-20.433c-65.233-95.406-137.38-185.898-215.859-270.746l172.442-172.44c84.808 78.524 175.301 150.675 270.746 215.858 7.774 5.306 14.279 12.265 19.050 20.377s7.692 17.179 8.552 26.551c0.86 9.372-0.36 18.819-3.572 27.665-3.215 8.846-8.344 16.873-15.020 23.507l-138.24 138.24zM478.413 209.351l-7.373-73.728c-0.565-4.006 0.066-8.086 1.815-11.731 1.749-3.641 4.538-6.689 8.016-8.749 3.322-1.565 6.984-2.269 10.65-2.048 4.014 0.029 7.934 1.241 11.264 3.482l50.176 33.382 50.176-33.382c3.322-2.163 7.201-3.31 11.162-3.31 3.965 0 7.84 1.147 11.162 3.31 3.363 2.142 6.029 5.222 7.668 8.864 1.634 3.637 2.175 7.676 1.548 11.616l-34.202 204.8c-42.324-42.328-83.010-86.495-122.061-132.506zM836.813 471.904c-2.060 3.478-5.108 6.263-8.753 8.012-3.641 1.753-7.725 2.384-11.727 1.819l-73.728-7.373c-45.875-39.186-90.178-79.806-132.915-121.856l204.8-34.406c3.94-0.627 7.979-0.090 11.616 1.548s6.722 4.301 8.864 7.668c2.159 3.322 3.31 7.197 3.31 11.162 0 3.961-1.151 7.84-3.31 11.162l-32.154 50.176 33.382 50.176c2.171 3.219 3.379 6.988 3.486 10.867 0.111 3.879-0.885 7.709-2.871 11.047z" />
<glyph unicode="&#xecba;" glyph-name="Group-2021" d="M734.712 522.707c-93.155 0-168.952-75.796-168.952-168.952s75.796-168.956 168.952-168.956c93.155 0 168.956 75.801 168.956 168.956s-75.801 168.952-168.956 168.952zM806.347 380.862c-49.115-73.679-35.189-52.789-61.44-92.156-9.429-14.139-28.516-17.891-42.602-8.503l-46.080 30.716c-14.111 9.409-17.912 28.475-8.503 42.607 9.409 14.111 28.471 17.912 42.602 8.503l20.505-13.668c48.992 73.478 46.359 71.442 54.604 76.145 27.98 16.183 58.892-16.634 40.915-43.643zM596.476 169.558v-169.071c0-23.536 25.494-38.371 45.965-26.669l92.271 52.724 92.271-52.724c20.39-11.682 45.965 3.068 45.965 26.669v169.071c-81.842-61.575-194.511-61.665-276.472 0zM796.152 575.814v310.241c0 36.786-29.934 66.718-66.72 66.718h-542.38c-36.786 0-66.717-29.932-66.717-66.718v-711.332c0-36.786 29.932-66.72 66.717-66.72h347.988c0 132.194-0.205 124.010 0.479 130.093-102.834 176.304 60.916 393.18 260.633 337.717zM304.648 799.178h261.112c16.97 0 30.716-13.747 30.716-30.719s-13.746-30.719-30.716-30.719h-261.112c-16.972 0-30.719 13.747-30.719 30.719s13.747 30.719 30.719 30.719zM458.244 491.991h-153.596c-16.972 0-30.719 13.746-30.719 30.716 0 16.974 13.747 30.72 30.719 30.72h153.596c16.97 0 30.716-13.747 30.716-30.72 0-16.97-13.746-30.716-30.716-30.716zM304.648 614.865c-16.972 0-30.719 13.747-30.719 30.719s13.747 30.719 30.719 30.719h261.112c16.97 0 30.716-13.747 30.716-30.719s-13.746-30.719-30.716-30.719h-261.112z" />
<glyph unicode="&#xecbb;" glyph-name="Group-2022" d="M512 461.251c-45.056 0-83.628 16.044-115.712 48.128-32.085 32.088-48.128 70.658-48.128 115.714s16.043 83.626 48.128 115.712c32.084 32.085 70.656 48.128 115.712 48.128s83.628-16.043 115.712-48.128c32.084-32.086 48.128-70.656 48.128-115.712s-16.044-83.626-48.128-115.714c-32.084-32.084-70.656-48.128-115.712-48.128zM184.32 215.491v32.768c0 23.212 5.973 44.544 17.92 64s27.819 34.304 47.616 44.544c42.325 21.164 85.333 37.036 129.024 47.616 43.692 10.584 88.064 15.872 133.12 15.872s89.428-5.288 133.12-15.872c43.692-10.58 86.7-26.452 129.024-47.616 19.796-10.24 35.668-25.088 47.616-44.544s17.92-40.788 17.92-64v-32.768c0-22.528-8.020-41.812-24.064-57.856-16.044-16.040-35.328-24.064-57.856-24.064h-491.52c-22.528 0-41.813 8.024-57.856 24.064-16.043 16.044-24.064 35.328-24.064 57.856z" />
<glyph unicode="&#xecbc;" glyph-name="Group-2023" horiz-adv-x="983" d="M921.6 461.255c0-114.065-45.31-223.457-125.968-304.116-80.654-80.654-190.046-125.964-304.112-125.964-114.064 0-223.457 45.31-304.112 125.964-80.656 80.658-125.968 190.050-125.968 304.116 0 8.147 3.237 15.958 8.998 21.721 5.761 5.759 13.575 8.999 21.722 8.999s15.961-3.24 21.722-8.999c5.761-5.763 8.998-13.574 8.998-21.721-0.126-82.272 27.229-162.226 77.726-227.176 50.496-64.946 121.239-111.17 201-131.33 79.76-20.161 163.97-13.099 239.263 20.058s137.351 90.513 176.329 162.963c38.982 72.446 52.642 155.841 38.822 236.941-13.824 81.1-54.338 155.261-115.11 210.71-60.776 55.45-138.33 89.011-220.357 95.358-82.022 6.347-163.817-14.885-232.399-60.326h19.046c8.147 0 15.961-3.236 21.722-8.998s8.998-13.575 8.998-21.722c0-8.147-3.237-15.961-8.998-21.722s-13.575-8.998-21.722-8.998h-92.16c-8.147 0-15.961 3.237-21.722 8.998s-8.998 13.575-8.998 21.722v92.16c0 8.148 3.237 15.961 8.998 21.722s13.575 8.998 21.722 8.998c8.147 0 15.961-3.236 21.722-8.998s8.998-13.575 8.998-21.722v-15.79c64.475 44.934 140.032 71.339 218.46 76.345 78.43 5.006 156.729-11.577 226.394-47.949s128.033-91.14 168.755-158.354c40.722-67.214 62.247-144.304 62.231-222.89zM768 461.255c0-54.686-16.216-108.138-46.596-153.604-30.38-45.47-73.56-80.904-124.080-101.831s-106.111-26.403-159.744-15.733c-53.63 10.666-102.894 36.999-141.561 75.665s-64.999 87.929-75.667 141.562c-10.668 53.633-5.193 109.224 15.733 159.743s56.363 93.7 101.83 124.080 98.922 46.595 153.604 46.595c73.302-0.081 143.577-29.236 195.412-81.069 51.831-51.832 80.986-122.107 81.068-195.409zM600.732 425.374l-78.492 52.314v137.165c0 8.148-3.236 15.961-8.999 21.722-5.759 5.761-13.574 8.998-21.721 8.998s-15.962-3.236-21.721-8.998c-5.763-5.761-8.999-13.575-8.999-21.722v-153.598c0-5.059 1.245-10.035 3.633-14.496 2.384-4.456 5.833-8.258 10.035-11.063l92.16-61.44c6.779-4.522 15.077-6.169 23.069-4.571 7.991 1.593 15.020 6.3 19.542 13.079s6.164 15.077 4.571 23.069c-1.597 7.987-6.304 15.020-13.079 19.542z" />
<glyph unicode="&#xecbd;" glyph-name="Group-2024" horiz-adv-x="983" d="M117.12 923.972v-752.641c0-15.917 12.881-28.799 28.8-28.799h518.402c15.917 0 28.799 12.882 28.799 28.799v752.641c0 15.919-12.882 28.8-28.799 28.8h-518.402c-15.919 0-28.8-12.881-28.8-28.8zM577.921 288.453h-115.2c-15.921 0-28.799 12.882-28.799 28.799 0 15.921 12.878 28.799 28.799 28.799h115.2c15.917 0 28.799-12.878 28.799-28.799 0-15.917-12.882-28.799-28.799-28.799zM232.32 806.853h172.8c15.92 0 28.802-12.882 28.802-28.8s-12.882-28.8-28.802-28.8h-172.8c-15.919 0-28.8 12.881-28.8 28.8s12.881 28.8 28.8 28.8zM232.32 691.653h345.601c15.917 0 28.799-12.882 28.799-28.8s-12.882-28.8-28.799-28.8h-345.601c-15.919 0-28.8 12.881-28.8 28.8s12.881 28.8 28.8 28.8zM232.32 576.453h345.601c15.917 0 28.799-12.882 28.799-28.801 0-15.917-12.882-28.799-28.799-28.799h-345.601c-15.919 0-28.8 12.882-28.8 28.799 0 15.92 12.881 28.801 28.8 28.801zM232.32 461.251h345.601c15.917 0 28.799-12.878 28.799-28.799 0-15.917-12.882-28.799-28.799-28.799h-345.601c-15.919 0-28.8 12.882-28.8 28.799 0 15.921 12.881 28.799 28.8 28.799zM318.72-30.269h518.4c15.917 0 28.799 12.882 28.799 28.803v750.719c0 15.919-12.882 28.8-28.799 28.8h-86.401v-606.721c0-47.641-38.756-86.401-86.397-86.401h-374.402v-86.397c0-15.921 12.882-28.803 28.8-28.803z" />
<glyph unicode="&#xecbe;" glyph-name="Group-2025" d="M311.713 659.332c102.952-14.141 137.39 96.985 113.952 174.242-3.994 15.313-12.69 28.988-24.864 39.096-12.176 10.108-27.216 16.141-43.002 17.248h-59.028c-70.25-5.619-81.14-90.625-69.445-145.517 3.716-20.765 13.539-39.951 28.214-55.104s33.536-25.587 54.172-29.965zM520.046 496.297c0.004-15.545-4.892-30.696-13.985-43.303s-21.925-22.032-36.679-26.931c-45.328-15.002-92.722-22.827-140.466-23.201-47.694 0.37-95.035 8.2-140.31 23.201-14.752 4.899-27.586 14.324-36.68 26.931s-13.987 27.758-13.983 43.303v68.494c-0.053 11.2 2.467 22.261 7.365 32.33s12.044 18.881 20.886 25.752c13.431 8.965 52.036 45.96 66.919 46.402 12.123-13.397 26.918-24.104 43.432-31.432s34.381-11.114 52.448-11.114c18.067 0 35.934 3.786 52.448 11.114s31.308 18.036 43.431 31.432c6.762-1.102 13.119-3.929 18.467-8.207 86.331-65.499 76.705-58.87 76.705-164.771zM663.828 262.554c102.825-14.206 137.626 96.906 114.109 174.241-4.013 15.301-12.717 28.963-24.887 39.066-12.17 10.106-27.199 16.148-42.98 17.278h-59.183c-70.046-5.636-80.983-90.608-69.447-145.518 3.765-20.744 13.607-39.901 28.274-55.048 14.667-15.143 33.501-25.592 54.114-30.019zM872.16 168.011v-68.498c0.004-15.541-4.888-30.692-13.982-43.299s-21.929-22.032-36.679-26.931c-45.277-15.002-92.617-22.831-140.312-23.201-47.695 0.354-95.039 8.184-140.308 23.201-14.789 4.864-27.66 14.273-36.785 26.884s-14.037 27.782-14.037 43.347v68.498c-0.016 11.193 2.521 22.24 7.416 32.307 4.896 10.063 12.020 18.881 20.834 25.773 14.915 10.102 51.956 46.025 67.237 46.403 12.107-13.395 26.888-24.103 43.39-31.429 16.498-7.329 34.355-11.114 52.409-11.114 18.058 0 35.911 3.785 52.413 11.114 16.502 7.326 31.283 18.034 43.39 31.429 6.688-1.174 12.981-3.994 18.306-8.208l48.612-38.353c8.802-6.861 15.915-15.648 20.787-25.691 4.868-10.043 7.369-21.071 7.306-32.232zM639.082 727.64l18.4 18.166v-178.188c0-6.277 2.493-12.299 6.936-16.741 4.439-4.439 10.461-6.932 16.738-6.932s12.3 2.493 16.742 6.932c4.439 4.443 6.932 10.464 6.932 16.741v177.652l18.31-18.277c4.486-4.182 10.421-6.458 16.557-6.35 6.132 0.108 11.985 2.593 16.321 6.93s6.821 10.19 6.932 16.323c0.106 6.133-2.17 12.069-6.353 16.557l-58.679 58.712c-4.053 4.027-9.437 6.436-15.143 6.776-5.703 0.34-11.335-1.413-15.837-4.929l-61.113-59.659c-2.213-2.184-3.974-4.782-5.183-7.646s-1.843-5.939-1.867-9.048c-0.020-3.109 0.571-6.192 1.741-9.073s2.899-5.502 5.081-7.716c2.182-2.213 4.781-3.975 7.645-5.185 2.867-1.21 5.939-1.843 9.051-1.864 3.107-0.021 6.191 0.57 9.070 1.74 2.883 1.171 5.506 2.896 7.719 5.080zM370.915 169.007l-18.308-18.278v177.636c0 6.278-2.494 12.3-6.934 16.742-4.44 4.439-10.461 6.932-16.74 6.932s-12.301-2.493-16.74-6.932c-4.44-4.443-6.934-10.464-6.934-16.742v-178.188c-8.665 7.467-21.796 26.356-35.022 25.001-4.667-0.071-9.211-1.508-13.068-4.135s-6.858-6.329-8.63-10.65c-1.772-4.317-2.236-9.062-1.336-13.639 0.9-4.58 3.125-8.795 6.399-12.123l58.68-57.891c3.341-3.23 7.543-5.423 12.102-6.321 4.558-0.894 9.279-0.453 13.593 1.272 2.904-2.146 63.007 61.33 66.413 63.823 4.313 4.466 6.699 10.445 6.644 16.652-0.051 6.211-2.544 12.146-6.932 16.538-4.391 4.387-10.327 6.877-16.535 6.932s-12.188-2.332-16.652-6.644v0.016z" />
<glyph unicode="&#xecbf;" glyph-name="Group-2110" horiz-adv-x="1067" d="M707.84 874.667h-357.546c-155.307 0-247.893-92.587-247.893-247.893v-357.547c0-155.307 92.587-247.893 247.893-247.893h357.546c155.307 0 247.893 92.587 247.893 247.893v357.547c0 155.307-92.587 247.893-247.893 247.893zM442.453 324.267l-95.999-96c-6.4-6.4-14.507-9.387-22.613-9.387s-16.64 2.987-22.613 9.387l-32 32c-12.8 12.373-12.8 32.853 0 45.227 12.373 12.373 32.427 12.373 45.227 0l9.387-9.387 73.387 73.387c12.373 12.373 32.426 12.373 45.226 0 12.373-12.373 12.373-32.853 0-45.227zM442.453 622.933l-95.999-96c-6.4-6.4-14.507-9.387-22.613-9.387s-16.64 2.987-22.613 9.387l-32 32c-12.8 12.373-12.8 32.853 0 45.227 12.373 12.373 32.427 12.373 45.227 0l9.387-9.387 73.387 73.387c12.373 12.373 32.426 12.373 45.226 0 12.373-12.373 12.373-32.853 0-45.227zM766.293 250.88h-224c-17.493 0-32 14.507-32 32s14.507 32 32 32h224c8.486 0 16.627-3.371 22.63-9.374 5.999-5.999 9.37-14.14 9.37-22.626s-3.371-16.627-9.37-22.626c-6.003-6.003-14.144-9.374-22.63-9.374zM766.293 549.547h-224c-17.493 0-32 14.507-32 32s14.507 32 32 32h224c8.486 0 16.627-3.372 22.63-9.373 5.999-6.001 9.37-14.141 9.37-22.627s-3.371-16.626-9.37-22.627c-6.003-6.001-14.144-9.373-22.63-9.373z" />
<glyph unicode="&#xecc0;" glyph-name="Group-2111" horiz-adv-x="1067" d="M461.824 842.837c24.836 16.987 54.225 26.076 84.309 26.076 30.089 0 59.477-9.089 84.309-26.076l277.333-189.781c20.041-13.706 36.433-32.091 47.765-53.562s17.254-45.381 17.259-69.659v-359.168c0-39.607-15.731-77.589-43.738-105.596s-65.988-43.738-105.596-43.738h-554.665c-39.606 0-77.589 15.731-105.594 43.738s-43.739 65.988-43.739 105.596v359.168c0.006 24.278 5.931 48.187 17.261 69.659s27.725 39.856 47.763 53.562l277.331 189.781zM439.467 213.333c-5.658 0-11.081-2.249-15.083-6.246-4.001-4.002-6.249-9.429-6.249-15.087s2.248-11.085 6.249-15.083c4.002-4.002 9.425-6.251 15.083-6.251h213.333c5.662 0 11.085 2.249 15.087 6.251 4.002 3.998 6.246 9.425 6.246 15.083s-2.244 11.085-6.246 15.087c-4.002 3.998-9.425 6.246-15.087 6.246h-213.333z" />
<glyph unicode="&#xecc1;" glyph-name="Group-2129" horiz-adv-x="1103" d="M377.778 772.001v-128c0-5.658-2.341-11.084-6.509-15.085s-9.82-6.248-15.713-6.248h-133.333c-5.894 0-11.546 2.247-15.713 6.248s-6.509 9.427-6.509 15.085v128c0 5.658 2.341 11.084 6.509 15.085s9.82 6.248 15.713 6.248h133.333c5.894 0 11.546-2.248 15.713-6.248s6.509-9.427 6.509-15.085zM355.556 537.332h-133.333c-5.894 0-11.546-2.245-15.713-6.246s-6.509-9.429-6.509-15.084v-128c0-5.66 2.341-11.087 6.509-15.084 4.167-4.001 9.82-6.25 15.713-6.25h133.333c5.894 0 11.546 2.249 15.713 6.25 4.168 3.998 6.509 9.425 6.509 15.084v128c0 5.656-2.341 11.083-6.509 15.084s-9.82 6.246-15.713 6.246zM355.556 281.336h-133.333c-5.894 0-11.546-2.249-15.713-6.25s-6.509-9.429-6.509-15.084v-128c0-5.66 2.341-11.087 6.509-15.084 4.167-4.001 9.82-6.25 15.713-6.25h133.333c5.894 0 11.546 2.249 15.713 6.25 4.168 3.998 6.509 9.425 6.509 15.084v128c0 5.656-2.341 11.083-6.509 15.084s-9.82 6.25-15.713 6.25zM844.446 537.332h-400.002c-5.892 0-11.544-2.245-15.714-6.246-4.167-4.001-6.506-9.429-6.506-15.084v-128c0-5.66 2.339-11.087 6.506-15.084 4.171-4.001 9.823-6.25 15.714-6.25h400.002c5.892 0 11.544 2.249 15.711 6.25 4.171 3.998 6.51 9.425 6.51 15.084v128c0 5.656-2.339 11.083-6.51 15.084-4.167 4.001-9.819 6.246-15.711 6.246zM844.446 793.334h-400.002c-5.892 0-11.544-2.248-15.714-6.248-4.167-4.001-6.506-9.427-6.506-15.085v-128c0-5.658 2.339-11.084 6.506-15.085 4.171-4.001 9.823-6.248 15.714-6.248h400.002c5.892 0 11.544 2.247 15.711 6.248 4.171 4.001 6.51 9.427 6.51 15.085v128c0 5.658-2.339 11.084-6.51 15.085-4.167 4.001-9.819 6.248-15.711 6.248zM844.446 281.336h-400.002c-5.892 0-11.544-2.249-15.714-6.25-4.167-4.001-6.506-9.429-6.506-15.084v-128c0-5.66 2.339-11.087 6.506-15.084 4.171-4.001 9.823-6.25 15.714-6.25h400.002c5.892 0 11.544 2.249 15.711 6.25 4.171 3.998 6.51 9.425 6.51 15.084v128c0 5.656-2.339 11.083-6.51 15.084-4.167 4.001-9.819 6.25-15.711 6.25z" />
<glyph unicode="&#xecc2;" glyph-name="Group-2131" horiz-adv-x="983" d="M841.388 424.776c-2.716 1.069-67.351 26.194-144.544 30.839-72.45 4.362-132.153-10.723-176.525-44.024v-454.709c32.305 51.499 90.042 75.268 171.79 70.636 68.284-3.871 127.631-26.804 128.197-27.025 4.366-1.716 9.085-2.343 13.75-1.819 4.661 0.52 9.126 2.175 13.005 4.817s7.053 6.193 9.245 10.342c2.195 4.145 3.342 8.77 3.342 13.459v370.684c0 5.784-1.745 11.436-5.001 16.216s-7.877 8.471-13.259 10.584zM764.936 176.218c-1.434-15.843-15.45-27.521-31.281-26.083-30.999 2.806-59.322 1.651-84.169-3.437-21.991-4.493-32.362 14.488-33.989 22.438-3.191 15.585 6.857 30.802 22.438 33.993 30.355 6.214 64.311 7.684 100.917 4.37 15.843-1.438 27.517-15.442 26.083-31.281zM764.936 299.778c-1.434-15.839-15.45-27.517-31.281-26.083-30.97 2.806-59.29 1.642-84.169-3.449-21.996-4.497-32.362 14.483-33.993 22.438-3.191 15.581 6.857 30.802 22.438 33.993 30.396 6.218 64.348 7.692 100.921 4.383 15.839-1.434 27.517-15.438 26.083-31.281zM286.191 455.614c-77.194-4.645-141.829-29.77-144.541-30.839-5.383-2.114-10.004-5.804-13.261-10.584s-4.998-10.433-4.998-16.216v-370.684c0-4.694 1.146-9.314 3.34-13.464s5.367-7.696 9.245-10.338c3.878-2.642 8.343-4.297 13.006-4.821 4.663-0.52 9.384 0.102 13.751 1.823 0.58 0.225 58.748 22.843 126.92 26.948 82.41 4.96 140.583-18.78 173.068-70.562v454.713c-44.376 33.3-104.086 48.382-176.53 44.024zM367.541 169.136c-1.628-7.95-12-26.931-33.991-22.438-24.847 5.087-53.165 6.242-84.169 3.437-15.828-1.438-29.846 10.24-31.28 26.083-1.434 15.839 10.243 29.843 26.085 31.281 36.607 3.314 70.562 1.843 100.919-4.37 15.581-3.191 25.628-18.407 22.437-33.993zM367.541 292.684c-1.628-7.95-11.998-26.935-33.991-22.438-24.881 5.095-53.201 6.255-84.171 3.449-38.135-2.028-43.060 52.527-5.196 57.369 36.572 3.31 70.526 1.835 100.919-4.387 15.582-3.191 25.63-18.412 22.439-33.993zM491.52 695.183c67.473 0 122.364 54.895 122.364 122.367-6.152 162.115-238.608 162.071-244.735-0.002 0.002-67.471 54.894-122.365 122.371-122.365zM183.038 618.095c67.474 0 122.367 54.895 122.367 122.367-6.152 162.115-238.608 162.071-244.735-0.002 0-67.473 54.893-122.365 122.368-122.365zM799.998 618.095c67.473 0 122.368 54.895 122.368 122.367-6.152 162.115-238.608 162.071-244.736-0.002 0-67.473 54.895-122.365 122.368-122.365zM674.558 560.886c0 46.278-25.715 87.869-67.101 108.539l-8.167 4.082c-59.875-47.41-155.648-47.412-215.524-0.017l-8.231-4.116c-41.362-20.701-67.058-62.289-67.058-108.535v-46.905c51.009 0.172 121.439-8.63 183.039-52.097 61.6 43.475 132.014 52.277 183.042 52.101v46.949zM915.943 592.337l-8.167 4.082c-46.989-36.935-120.115-46.814-176.087-22.445 0.311-4.329 0.471-8.696 0.471-13.090v-50.719c69.796-8.614 123.617-29.155 130.306-31.785 33.28-13.087 54.78-44.646 54.78-80.404v-70.922h36.995c15.905 0 28.799 12.898 28.799 28.803v127.943c0 46.277-25.715 87.868-67.097 108.538zM250.879 560.84c0 4.41 0.163 8.792 0.478 13.137-55.976-24.367-129.074-14.496-176.070 22.426l-8.231-4.116c-41.361-20.7-67.056-62.288-67.056-108.536v-127.894c0-15.905 12.895-28.803 28.8-28.803h36.993v70.922c0 35.758 21.502 67.318 54.779 80.404 6.689 2.63 60.511 23.167 130.306 31.781v50.679z" />
<glyph unicode="&#xecc3;" glyph-name="Group-2132" horiz-adv-x="1067" d="M520.533 480c53.018 0 96 42.982 96 96s-42.982 96-96 96c-53.022 0-96.002-42.981-96.002-96s42.98-96 96.002-96zM776.533 906.667h-512.002c-53.73-0.068-105.239-21.442-143.232-59.435s-59.367-89.502-59.435-143.232v-512c0.068-53.73 21.442-105.242 59.435-143.232 37.993-37.995 89.502-59.366 143.232-59.435h512.002c53.726 0.068 105.237 21.44 143.232 59.435 37.99 37.99 59.366 89.502 59.435 143.232v512c-0.068 53.73-21.444 105.239-59.435 143.232-37.995 37.993-89.506 59.367-143.232 59.435zM520.533 736c31.642 0 62.579-9.384 88.887-26.965 26.313-17.581 46.822-42.569 58.931-71.806s15.279-61.407 9.105-92.444c-6.174-31.036-21.414-59.546-43.789-81.925-22.374-22.374-50.884-37.615-81.924-43.785-31.036-6.174-63.206-3.008-92.442 9.105-29.235 12.109-54.225 32.614-71.806 58.927s-26.965 57.247-26.965 88.892c0.056 42.417 16.932 83.081 46.925 113.075s70.658 46.869 113.077 46.925zM738.56 199.723c-8.41-0.956-16.853 1.429-23.518 6.639-6.665 5.214-11.012 12.834-12.109 21.222-3.516 28.425-17.293 54.592-38.746 73.574-21.449 18.982-49.092 29.474-77.734 29.508h-131.84c-28.645-0.034-56.29-10.526-77.74-29.508s-35.227-45.15-38.743-73.574c-0.957-7.748-4.71-14.882-10.555-20.062-5.845-5.175-13.38-8.043-21.189-8.055-1.312 0-2.624 0.085-3.925 0.256-4.172 0.512-8.202 1.839-11.86 3.913-3.658 2.069-6.872 4.838-9.46 8.149-2.587 3.315-4.497 7.104-5.619 11.153s-1.436 8.282-0.923 12.454c5.439 43.925 26.734 84.352 59.882 113.681s75.867 45.542 120.131 45.594h131.84c44.262-0.038 86.985-16.252 120.137-45.581 33.148-29.333 54.443-69.764 59.874-113.694 1.024-8.431-1.34-16.922-6.575-23.607-5.231-6.69-12.902-11.025-21.329-12.062z" />
<glyph unicode="&#xecc4;" glyph-name="Group-289239" d="M581.382 421.962c-5.366 0-10.51 2.134-14.303 5.927s-5.923 8.937-5.923 14.303v92.439h-98.304v-92.439c0-5.366-2.134-10.51-5.927-14.303s-8.937-5.927-14.303-5.927h-92.437v-98.099h92.437c5.366 0 10.51-2.13 14.303-5.927 3.793-3.793 5.927-8.937 5.927-14.299v-92.439h98.099v92.439c0 5.362 2.13 10.506 5.927 14.299 3.793 3.797 8.937 5.927 14.299 5.927h92.643v98.099h-92.439zM863.953 726.585h-703.905c-64.322 0-139.568-36.611-139.568-139.567v-439.537c0-102.957 75.245-139.567 139.568-139.567h703.905c64.324 0 139.567 36.61 139.567 139.567v439.537c0 102.956-75.043 139.567-139.567 139.567zM714.273 313.545c0-16.642-13.496-30.138-30.138-30.138h-82.526v-82.526c0-16.642-13.496-30.138-30.138-30.138h-118.94c-16.642 0-30.138 13.496-30.138 30.138v82.526h-82.323c-16.645-0.111-30.23 13.292-30.341 29.938v118.936c0 16.646 13.494 30.138 30.138 30.138h82.525v82.526c0 16.645 13.496 30.14 30.138 30.14h118.735c16.646 0 30.138-13.494 30.138-30.14v-82.526h82.526c16.646 0.111 30.233-13.292 30.343-29.938v-118.936zM642.048 914.495c-2.216 0.126-4.444 0.126-6.664 0h-246.77c-32.457 1.838-60.259-22.981-62.097-55.435-0.126-2.22-0.126-4.442 0-6.662v-91.022h40.455l0.202 91.022c0 5.866 0 21.643 21.643 21.643h246.567c21.643 0 21.643-15.575 21.643-21.643v-91.022h40.456v91.022c1.839 32.457-22.983 60.257-55.435 62.097z" />
<glyph unicode="&#xecc5;" glyph-name="Group" horiz-adv-x="1078" d="M310.52 620.234c92.764 0 167.963 76.059 167.963 169.883s-75.199 169.883-167.963 169.883c-92.764 0-167.964-76.059-167.964-169.883s75.2-169.883 167.964-169.883zM775.125 508.901c-153.479 0-278.345-126.292-278.345-281.522s124.866-281.525 278.345-281.525c153.479 0 278.345 126.292 278.345 281.525s-124.866 281.522-278.345 281.522zM947.286 184.907h-130.169v-131.659h-83.984v131.659h-130.172v84.943h130.172v131.659h83.984v-131.659h130.169v-84.943zM310.523 535.293c-168.134 0-304.434-137.857-304.434-307.914h406.71c0 91.635 33.428 175.522 88.592 239.845-52.211 42.563-118.585 68.069-190.868 68.069z" />
<glyph unicode="&#xecc6;" glyph-name="lock" horiz-adv-x="983" d="M245.76 25.149c-22.528 0-41.813 8.020-57.856 24.064-16.043 16.040-24.064 35.328-24.064 57.856v409.6c0 22.528 8.021 41.812 24.064 57.854s35.328 24.064 57.856 24.064h40.96v81.92c0 56.662 19.968 104.96 59.904 144.896s88.236 59.904 144.896 59.904c56.66 0 104.96-19.968 144.896-59.904s59.904-88.234 59.904-144.896v-81.92h40.96c22.528 0 41.812-8.021 57.856-24.064s24.064-35.326 24.064-57.854v-409.6c0-22.528-8.020-41.816-24.064-57.856-16.044-16.044-35.328-24.064-57.856-24.064h-491.52zM491.52 229.949c22.528 0 41.812 8.020 57.856 24.064 16.044 16.040 24.064 35.328 24.064 57.856s-8.020 41.812-24.064 57.856c-16.044 16.040-35.328 24.064-57.856 24.064s-41.812-8.024-57.856-24.064c-16.044-16.044-24.064-35.328-24.064-57.856s8.020-41.816 24.064-57.856c16.044-16.044 35.328-24.064 57.856-24.064zM368.64 598.587h245.76v81.92c0 34.134-11.948 63.147-35.84 87.040s-52.908 35.84-87.040 35.84c-34.132 0-63.148-11.946-87.040-35.84-23.893-23.893-35.84-52.906-35.84-87.040v-81.92z" />
<glyph unicode="&#xecc7;" glyph-name="settings1" d="M461.867 21.333c-19.2 0-35.734 6.4-49.601 19.2s-22.222 28.446-25.067 46.933l-9.6 70.4c-9.245 3.554-17.955 7.821-26.133 12.8s-16.178 10.313-24 16l-66.133-27.733c-17.778-7.821-35.555-8.533-53.333-2.133s-31.645 17.779-41.6 34.133l-50.133 87.467c-9.955 16.354-12.8 33.779-8.533 52.267s13.867 33.779 28.8 45.867l56.533 42.667c-0.711 4.979-1.067 9.779-1.067 14.4v28.8c0 4.621 0.355 9.421 1.067 14.4l-56.533 42.667c-14.933 12.087-24.533 27.378-28.8 45.867s-1.422 35.911 8.533 52.267l50.133 87.467c9.955 16.355 23.822 27.733 41.6 34.133s35.555 5.689 53.333-2.133l66.133-27.733c7.822 5.689 16 11.022 24.533 16s17.067 9.245 25.6 12.8l9.6 70.4c2.845 18.489 11.2 34.133 25.067 46.933s30.401 19.2 49.601 19.2h100.267c19.2 0 35.733-6.4 49.6-19.2s22.221-28.445 25.067-46.933l9.6-70.4c9.242-3.555 17.954-7.822 26.133-12.8 8.175-4.978 16.175-10.311 24-16l66.133 27.733c17.775 7.822 35.554 8.533 53.333 2.133 17.775-6.4 31.642-17.778 41.6-34.133l50.133-87.467c9.954-16.355 12.8-33.778 8.533-52.267s-13.867-33.779-28.8-45.867l-56.533-42.667c0.708-4.979 1.067-9.779 1.067-14.4v-28.8c0-4.621-0.713-9.421-2.133-14.4l56.533-42.667c14.933-12.087 24.533-27.379 28.8-45.867s1.421-35.913-8.533-52.267l-51.2-87.467c-9.958-16.354-23.825-27.733-41.6-34.133-17.779-6.4-35.558-5.687-53.333 2.133l-64 27.733c-7.825-5.687-16-11.021-24.533-16s-17.067-9.246-25.6-12.8l-9.6-70.4c-2.846-18.487-11.2-34.133-25.067-46.933s-30.4-19.2-49.6-19.2h-100.267zM514.133 298.667c41.242 0 76.442 14.579 105.6 43.733 29.154 29.154 43.733 64.354 43.733 105.6s-14.579 76.446-43.733 105.6c-29.158 29.155-64.358 43.733-105.6 43.733-41.958 0-77.333-14.578-106.134-43.733-28.8-29.154-43.2-64.354-43.2-105.6s14.4-76.446 43.2-105.6c28.801-29.154 64.176-43.733 106.134-43.733z" />
<glyph unicode="&#xecc8;" horiz-adv-x="1030" d="M752.99 628.163c14.311-14.253 14.361-37.408 0.106-51.719l-308.151-309.405c-14.253-14.311-37.408-14.355-51.719-0.106l-112.382 111.916c-14.312 14.252-14.36 37.408-0.107 51.719s37.408 14.36 51.719 0.107l86.469-86.11 282.346 283.493c14.255 14.311 37.407 14.358 51.718 0.105z" />
<glyph unicode="&#xecc9;" horiz-adv-x="1030" d="M512.99 855.638c-193.856 0-356.487-135.364-398.234-316.702v-0.001c-6.796-29.517-10.394-60.283-10.394-91.925 0-225.507 183.12-408.628 408.628-408.628s408.628 183.121 408.628 408.628c0 225.508-183.121 408.628-408.628 408.628zM43.478 555.345c49.216 213.781 240.807 373.435 469.512 373.435 265.905 0 481.77-215.867 481.77-481.771s-215.864-481.77-481.77-481.77c-265.903 0-481.771 215.864-481.771 481.77 0 37.206 4.233 73.476 12.259 108.335z" />
<glyph unicode="&#xecca;" glyph-name="Vector-1" horiz-adv-x="1205" d="M1024 911.478h-843.294c-47.926 0-93.889-18.948-127.778-52.677s-52.928-79.474-52.928-127.172v-599.497c0-47.7 19.039-93.449 52.928-127.175s79.852-52.676 127.778-52.676h843.294c47.923 0 93.889 18.95 127.777 52.676s52.929 79.474 52.929 127.175v599.497c0 47.699-19.040 93.444-52.929 127.172s-79.854 52.677-127.777 52.677zM1024 791.579l-391.529-267.976c-9.156-5.262-19.546-8.032-30.118-8.032-10.574 0-20.961 2.77-30.118 8.032l-391.529 267.976h843.294z" />
<glyph unicode="&#xeccb;" glyph-name="Vector" horiz-adv-x="1536" d="M617.395 176.763h46.546v56.709c-16.584 18.724-28.355 42.266-32.102 67.948h-6.415c-26.22 0-48.686 16.584-57.247 40.125h-66.342l-52.965-66.34c-37.985-47.616-109.676-47.616-147.661 0l-52.966 66.34h-104.326c-79.181 0-143.917-64.737-143.917-143.918v-220.421h142.846v148.731c0 23.004 35.31 23.004 35.31 0v-148.731h304.953v63.667c0 74.9 59.385 135.89 134.285 135.89zM178.692 621.886h13.375v84.531c-17.655 0-28.356 0.535-42.801-12.305-25.68-23.005-9.63-72.226 29.425-72.226zM1391.549 341.007h-138.568c-30.495-24.607-61.527-37.448-92.554-37.448-31.032 0-62.597 12.303-92.559 37.448h-101.115c-8.561-23.004-31.027-39.588-56.709-39.588h-6.42c-4.28-25.682-15.514-49.224-32.102-67.948v-56.709h46.546c74.368 0 134.825-60.457 134.825-134.82v-64.205h304.952v148.198c0 23.004 35.308 23.004 35.308 0v-148.198h142.848v220.426c-0.532 78.643-64.737 142.843-144.451 142.843zM196.347 741.193c7.49 20.865 28.356 59.385 77.041 75.436 67.411 22.47 85.601-36.38 156.222-8.56 62.596 24.61 104.325-18.725 123.048-67.41 14.981 0 29.962 0.535 44.406-4.28-5.35 71.691-53.499 83.996-53.499 83.996-6.953 1.605-12.303 7.49-13.373 14.445-10.701 71.156-64.202 115.561-143.383 118.236-144.987 4.28-164.247-96.301-164.247-97.371-1.070-5.35-4.28-10.165-9.095-12.84-50.826-26.215-62.596-68.481-60.99-106.466 13.91 5.885 28.89 4.815 43.87 4.815zM558.008 706.417v-84.531h13.379c36.915 0 55.107 44.405 31.565 70.621-16.584 13.91-24.612 13.91-44.943 13.91z" />
<glyph unicode="&#xeccc;" glyph-name="visibility_off" horiz-adv-x="1073" d="M736.305 408.99l-70.705 70.702c7.314 38.197-3.657 73.956-32.914 107.276s-67.048 46.324-113.371 39.010l-70.705 70.705c13.816 6.501 27.835 11.378 42.057 14.629 14.224 3.251 29.462 4.876 45.714 4.876 60.952 0 112.762-21.333 155.429-64s64-94.476 64-155.429c0-16.254-1.624-31.493-4.876-45.712-3.252-14.224-8.129-28.243-14.629-42.057zM892.343 255.386l-70.705 68.272c30.881 23.567 58.309 49.371 82.286 77.405 23.976 28.038 44.495 59.938 61.562 95.698-40.633 82.082-98.948 147.301-174.933 195.657s-160.709 72.533-254.171 72.533c-23.567 0-46.729-1.625-69.486-4.876-22.756-3.251-45.105-8.127-67.048-14.629l-75.581 75.581c33.32 13.816 67.454 24.178 102.4 31.086s71.519 10.362 109.714 10.362c122.719 0 232.024-33.93 327.924-101.79s165.386-155.835 208.457-263.924c-18.69-47.95-43.276-92.445-73.752-133.483-30.476-41.043-66.033-77.005-106.667-107.891zM916.724-44.495l-204.8 202.357c-28.443-8.938-57.090-15.643-85.943-20.114-28.852-4.467-58.719-6.7-89.6-6.7-122.718 0-232.025 33.929-327.924 101.79-95.899 67.857-165.384 155.833-208.457 263.921 17.067 43.073 38.603 83.099 64.61 120.076s55.67 70.095 88.99 99.352l-134.095 136.533 68.267 68.267 897.219-897.222-68.267-68.262zM221.867 647.921c-23.568-21.13-45.105-44.292-64.61-69.486s-36.165-52.419-49.981-81.676c40.635-82.083 98.946-147.302 174.933-195.66 75.987-48.352 160.711-72.533 254.171-72.533 16.252 0 32.1 1.019 47.543 3.048 15.443 2.033 31.291 4.272 47.543 6.71l-43.886 46.324c-8.938-2.443-17.471-4.272-25.6-5.491-8.129-1.214-16.662-1.824-25.6-1.824-60.952 0-112.762 21.333-155.429 64s-64 94.476-64 155.426c0 8.94 0.61 17.473 1.829 25.6s3.048 16.66 5.486 25.6l-102.4 99.962z" />
</font>
</defs>
</svg>
